<?xml version="1.0" standalone="no"?>
<!DOCTYPE svg PUBLIC "-//W3C//DTD SVG 20010904//EN"
 "http://www.w3.org/TR/2001/REC-SVG-20010904/DTD/svg10.dtd">
<svg version="1.0" xmlns="http://www.w3.org/2000/svg"
 width="736.000000pt" height="552.000000pt" viewBox="0 0 736.000000 552.000000"
 preserveAspectRatio="xMidYMid meet">
<metadata>
Created by potrace 1.16, written by Peter Selinger 2001-2019
</metadata>
<g transform="translate(0.000000,552.000000) scale(0.100000,-0.100000)"
fill="#000000" stroke="none">
<path d="M3557 4049 c-279 -36 -548 -233 -677 -494 -63 -129 -84 -225 -83
-390 0 -159 18 -247 77 -372 88 -185 246 -347 419 -429 l37 -18 0 -268 c0
-296 3 -313 59 -361 l33 -27 261 0 c240 0 264 2 291 19 35 24 66 69 66 99 l0
22 -269 0 c-232 0 -272 2 -285 16 -14 13 -16 52 -16 270 0 302 -3 315 -93 360
-171 86 -288 200 -367 359 -190 377 -32 829 353 1010 496 234 1066 -128 1067
-677 0 -126 -22 -217 -81 -335 -83 -167 -230 -303 -389 -363 -33 -12 -60 -28
-60 -34 1 -33 69 -76 122 -76 76 0 256 128 353 251 69 88 137 224 167 334 31
116 31 326 -1 444 -93 348 -376 603 -729 656 -106 16 -152 17 -255 4z"/>
<path d="M3490 1568 c0 -36 38 -88 75 -104 20 -8 67 -14 115 -14 48 0 95 6
115 14 37 16 75 68 75 104 l0 22 -190 0 -190 0 0 -22z"/>
</g>
</svg>
